<svg width="33" height="38" viewBox="0 0 33 38" fill="none" xmlns="http://www.w3.org/2000/svg">
<path d="M5.4339 20.2842C8.38204 18.9237 11.3737 18.0208 13.6 15.2466C15.8264 12.4723 16.5482 8.94289 17.5152 5.1507C18.5377 8.90581 19.2344 12.5418 21.4774 15.2791C23.7204 18.0165 26.7089 18.9563 29.7897 20.169C26.7811 21.4351 23.7472 22.3072 21.5028 25.065C19.2598 27.8229 18.5328 31.4365 17.4416 35.0459C16.2311 26.7129 12.2285 21.8191 5.4339 20.2842Z" fill="#09C4AE"/>
<path d="M10.7479 2.42118C11.0971 2.31653 11.4211 2.11749 11.6981 1.83841C11.9265 1.49983 12.0826 1.09762 12.1531 0.66671C12.2304 1.09762 12.3882 1.49979 12.6131 1.8425C12.8935 2.12568 13.2259 2.31856 13.5802 2.41089C13.2276 2.50528 12.8986 2.70021 12.6182 2.97722C12.3949 3.3199 12.232 3.71386 12.1447 4.13862C12.0608 3.23987 11.4832 2.52992 10.7479 2.42118Z" fill="#09C4AE"/>
<path d="M0 28.6655C2.66048 27.9382 4.23301 25.9861 4.87959 22.713C5.56029 25.9391 7.05737 27.9687 9.75 28.6233C7.17249 29.4703 5.50753 31.2956 4.88538 34.6297C4.26125 31.3449 2.65479 29.3976 0 28.6655Z" fill="#09C4AE"/>
<path d="M25.9045 9.87964C25.2835 7.40138 23.9169 6.00052 21.75 5.29385C23.8994 4.65687 25.3098 3.26843 25.8805 0.713036C26.5233 3.13906 27.7828 4.68674 30 5.27398C27.9074 6.03288 26.4643 7.3889 25.9045 9.87964Z" fill="#09C4AE"/>
<path d="M24 28.645C26.0184 28.0525 27.5912 26.1139 28.0702 23.6297C28.7541 26.2576 29.9981 27.9851 32.25 28.6156H32.2476C30.1768 29.1787 28.554 31.1643 28.0821 33.713C27.6079 31.2113 26.0279 29.2521 24 28.645Z" fill="#09C4AE"/>
<path d="M11.25 11.3509C10.0279 11.8724 9.09916 13.0297 8.7472 14.463C8.15327 12.9488 7.44693 11.8724 6 11.4513C7.17075 10.6314 8.33417 10.0235 8.54679 8.04637C9.26046 9.69446 9.93509 10.835 11.25 11.3509Z" fill="#09C4AE"/>
<path d="M20.1983 35.8648C20.7741 35.3395 21.3332 35.0932 21.4877 33.9523C21.7059 34.7896 22.2365 35.4523 22.9181 35.7334C22.3019 35.9427 21.8151 36.5234 21.6287 37.2724C21.1905 36.7061 21.0008 35.9058 20.1983 35.8648Z" fill="#09C4AE"/>
</svg>
