<svg width="332" height="173" viewBox="0 0 332 173" fill="none" xmlns="http://www.w3.org/2000/svg">
<path d="M332 166C332 143.928 327.598 122.078 319.052 101.727C310.506 81.3766 297.988 62.9348 282.229 47.4805C266.47 32.0263 247.787 19.8699 227.274 11.7227C206.761 3.57544 184.829 -0.399099 162.761 0.0316082C140.693 0.462316 118.933 5.28962 98.7527 14.2311C78.5729 23.1726 60.3789 36.0487 45.2351 52.1061C30.0913 68.1635 18.3018 87.0797 10.5564 107.748C2.81097 128.417 -0.734831 150.422 0.126421 172.477L26.6662 171.441C25.9427 152.915 28.9212 134.43 35.4274 117.068C41.9335 99.707 51.8367 83.8173 64.5574 70.3291C77.2782 56.8409 92.5612 46.025 109.512 38.5141C126.463 31.0033 144.742 26.9483 163.279 26.5865C181.816 26.2248 200.239 29.5634 217.47 36.4071C234.701 43.2507 250.395 53.4621 263.632 66.4437C276.87 79.4252 287.385 94.9164 294.564 112.011C301.743 129.105 305.44 147.459 305.44 166H332Z" fill="#FFD0AE"/>
</svg>
