<svg width="60" height="61" viewBox="0 0 60 61" fill="none" xmlns="http://www.w3.org/2000/svg">
<path d="M32.5 22.8533H46.25L32.5 9.10327V22.8533ZM15 5.35327H35L50 20.3533V50.3533C50 51.6794 49.4732 52.9511 48.5355 53.8888C47.5979 54.8265 46.3261 55.3533 45 55.3533H15C13.6739 55.3533 12.4021 54.8265 11.4645 53.8888C10.5268 52.9511 10 51.6794 10 50.3533V10.3533C10 9.02719 10.5268 7.75542 11.4645 6.81774C12.4021 5.88006 13.6739 5.35327 15 5.35327ZM27.325 31.4533C28.35 33.7033 29.65 35.5533 31.15 36.8283L32.175 37.6283C30 38.0283 27 38.7283 23.825 39.9533L23.55 40.0533L24.8 37.4533C25.925 35.2783 26.75 33.3033 27.325 31.4533ZM43.525 40.9783C43.975 40.5283 44.2 39.9533 44.225 39.3283C44.3 38.8283 44.175 38.3533 43.925 37.9533C43.2 36.7783 41.325 36.2283 38.225 36.2283L35 36.4033L32.825 34.9533C31.25 33.6533 29.825 31.3783 28.825 28.5533L28.925 28.2033C29.75 24.8783 30.525 20.8533 28.875 19.2033C28.6732 19.0073 28.4345 18.8533 28.1727 18.7503C27.9109 18.6474 27.6313 18.5974 27.35 18.6033H26.75C25.825 18.6033 25 19.5783 24.775 20.5283C23.85 23.8533 24.4 25.6783 25.325 28.7033V28.7283C24.7 30.9283 23.9 33.4783 22.625 36.0533L20.225 40.5533L18 41.7783C15 43.6533 13.575 45.7533 13.3 47.0783C13.2 47.5533 13.25 47.9783 13.425 48.4283L13.5 48.5533L14.7 49.3283L15.8 49.6033C17.825 49.6033 20.125 47.2283 23.225 41.9283L23.675 41.7533C26.25 40.9283 29.45 40.3533 33.75 39.8783C36.325 41.1533 39.35 41.7283 41.25 41.7283C42.35 41.7283 43.1 41.4533 43.525 40.9783ZM42.5 39.2033L42.725 39.4783C42.7 39.7283 42.625 39.7533 42.5 39.8033H42.4L41.925 39.8533C40.775 39.8533 39 39.3783 37.175 38.5783C37.4 38.3283 37.5 38.3283 37.75 38.3283C41.25 38.3283 42.25 38.9533 42.5 39.2033ZM19.575 42.8533C17.95 45.8283 16.475 47.4783 15.35 47.8533C15.475 46.9033 16.6 45.2533 18.375 43.6283L19.575 42.8533ZM27.125 25.5783C26.55 23.3283 26.525 21.5033 26.95 20.4533L27.125 20.1533L27.5 20.2783C27.925 20.8783 27.975 21.6783 27.725 23.0283L27.65 23.4283L27.25 25.4783L27.125 25.5783Z" fill="#EF5350"/>
</svg>
