<svg width="11" height="11" viewBox="0 0 11 11" fill="none" xmlns="http://www.w3.org/2000/svg">
<path d="M5.28 0C8.19614 0 10.56 2.36386 10.56 5.28C10.56 8.19614 8.19614 10.56 5.28 10.56C2.36386 10.56 0 8.19614 0 5.28C0 2.36386 2.36386 0 5.28 0ZM5.28 2.112C5.13997 2.112 5.00567 2.16763 4.90665 2.26665C4.80763 2.36567 4.752 2.49997 4.752 2.64V5.28C4.75203 5.42002 4.80768 5.5543 4.9067 5.6533L6.4907 7.2373C6.59029 7.33348 6.72366 7.38669 6.8621 7.38549C7.00054 7.38429 7.13297 7.32876 7.23086 7.23086C7.32876 7.13297 7.38429 7.00054 7.38549 6.8621C7.38669 6.72366 7.33348 6.59029 7.2373 6.4907L5.808 5.06141V2.64C5.808 2.49997 5.75237 2.36567 5.65335 2.26665C5.55433 2.16763 5.42003 2.112 5.28 2.112Z" fill="#09C4AE"/>
</svg>
