<svg width="17" height="20" viewBox="0 0 17 20" fill="none" xmlns="http://www.w3.org/2000/svg">
<path d="M8.5 0.557617C9.5417 0.55762 10.5732 0.766244 11.5361 1.1709C12.4992 1.57562 13.3754 2.16827 14.1133 2.91699C14.8513 3.66577 15.4371 4.55571 15.8369 5.53516C16.2367 6.51449 16.4424 7.56451 16.4424 8.625C16.4424 9.68564 16.2368 10.7364 15.8369 11.7158C15.4371 12.6951 14.8511 13.5843 14.1133 14.333H14.1123L9.49023 19.0254C9.35961 19.158 9.20477 19.2626 9.03516 19.334C8.86538 19.4054 8.68328 19.4424 8.5 19.4424C8.31672 19.4424 8.13462 19.4054 7.96484 19.334C7.79522 19.2626 7.6404 19.158 7.50977 19.0254L2.88672 14.333C2.14888 13.5843 1.56289 12.6951 1.16309 11.7158C0.763282 10.7365 0.557715 9.68644 0.557617 8.62598C0.55756 7.56557 0.763464 6.51543 1.16309 5.53613C1.56282 4.55672 2.14885 3.66679 2.88672 2.91797C3.62454 2.16924 4.49995 1.5757 5.46289 1.1709C6.42587 0.766079 7.45815 0.557675 8.5 0.557617ZM8.5 1.43262C7.56688 1.43262 6.64289 1.61928 5.78125 1.98145C4.91973 2.34359 4.13709 2.87373 3.47852 3.54199C2.8199 4.21031 2.29839 5.00384 1.94238 5.87598C1.58641 6.74807 1.40332 7.6825 1.40332 8.62598C1.40333 9.56946 1.58639 10.5039 1.94238 11.376C2.29832 12.2479 2.82009 13.0408 3.47852 13.709V13.71L8.10254 18.3984L8.5 18.8018L8.89746 18.3984L13.5215 13.71V13.709C14.18 13.0408 14.7016 12.2479 15.0576 11.376C15.4137 10.5039 15.5976 9.5695 15.5977 8.62598C15.5977 7.68246 15.4137 6.74809 15.0576 5.87598C14.7015 5.00384 14.1802 4.21025 13.5215 3.54199C12.8629 2.87373 12.0803 2.34359 11.2188 1.98145C10.3571 1.61929 9.43312 1.43262 8.5 1.43262ZM8.48633 6.53125C9.02127 6.5433 9.53246 6.76654 9.90918 7.15723C10.2862 7.54824 10.4979 8.07561 10.498 8.62598C10.4982 9.17636 10.286 9.7035 9.90918 10.0947C9.53265 10.4855 9.0222 10.7104 8.4873 10.7227C8.21445 10.7289 7.9428 10.6789 7.68848 10.5771C7.43437 10.4754 7.20211 10.3234 7.00586 10.1289C6.80947 9.93413 6.65293 9.70031 6.5459 9.44238C6.43891 9.18449 6.38288 8.90725 6.38281 8.62695C6.38276 8.34672 6.43809 8.06942 6.54492 7.81152C6.65182 7.55355 6.80859 7.31988 7.00488 7.125C7.20111 6.93025 7.43331 6.77766 7.6875 6.67578C7.94177 6.57387 8.21347 6.52513 8.48633 6.53125Z" fill="#09C4AE" stroke="#09C4AE" stroke-width="1.11538"/>
</svg>
