<svg width="20" height="21" viewBox="0 0 20 21" fill="none" xmlns="http://www.w3.org/2000/svg">
<path d="M17 19.5V3.5C17 2.96957 16.7893 2.46086 16.4142 2.08579C16.0391 1.71071 15.5304 1.5 15 1.5H5C4.46957 1.5 3.96086 1.71071 3.58579 2.08579C3.21071 2.46086 3 2.96957 3 3.5V19.5M17 19.5H19M17 19.5H12M3 19.5H1M3 19.5H8M12 19.5V14.5C12 14.2348 11.8946 13.9804 11.7071 13.7929C11.5196 13.6054 11.2652 13.5 11 13.5H9C8.73478 13.5 8.48043 13.6054 8.29289 13.7929C8.10536 13.9804 8 14.2348 8 14.5V19.5M12 19.5H8M7 5.5H8M7 9.5H8M12 5.5H13M12 9.5H13" stroke="#09C4AE" stroke-width="2" stroke-linecap="round" stroke-linejoin="round"/>
</svg>
