<svg width="18" height="15" viewBox="0 0 18 15" fill="none" xmlns="http://www.w3.org/2000/svg">
<path fill-rule="evenodd" clip-rule="evenodd" d="M17.3571 0H10.2857L9.83571 0.189874L9 1L8.16429 0.189874L7.71429 0H0.642857L0 0.632911V13.2911L0.642857 13.9241H7.44429L8.55 15H9.45L10.5557 13.9241H17.3571L18 13.2911V0.632911L17.3571 0ZM8.35714 13.0633L8.12571 12.8481L7.71429 12.6582H1.28571V1.26582H7.44429L8.39571 2.20253L8.35714 13.0633ZM16.7143 12.6582H10.2857L9.83571 12.8481L9.65571 13.0127V2.1519L10.5557 1.26582H16.7143V12.6582ZM6.42857 3.79747H2.57143V5.06329H6.42857V3.79747ZM6.42857 8.86076H2.57143V10.1266H6.42857V8.86076ZM2.57143 6.32911H6.42857V7.59494H2.57143V6.32911ZM15.4286 3.79747H11.5714V5.06329H15.4286V3.79747ZM11.5714 6.32911H15.4286V7.59494H11.5714V6.32911ZM11.5714 8.86076H15.4286V10.1266H11.5714V8.86076Z" fill="#09C4AE"/>
</svg>
