<svg width="18" height="19" viewBox="0 0 18 19" fill="none" xmlns="http://www.w3.org/2000/svg">
<path d="M1.50586 1.25H4.85059C4.99897 1.25044 5.14381 1.29547 5.2666 1.37891C5.38936 1.46242 5.48495 1.58074 5.54004 1.71875V1.71973L6.29395 3.6084V3.60938L6.29688 3.61426C6.35212 3.74988 6.36575 3.89936 6.33691 4.04297C6.30813 4.18592 6.23833 4.31745 6.13574 4.4209L4.31836 6.23828L4.37402 6.61133L5.11621 6.50195L4.37402 6.6123V6.61523C4.37427 6.61685 4.37464 6.61879 4.375 6.62109C4.37573 6.62581 4.37671 6.63216 4.37793 6.63965C4.38042 6.65491 4.38495 6.67601 4.38965 6.70215C4.39912 6.75475 4.41259 6.82943 4.43262 6.92188C4.47264 7.10659 4.53632 7.36625 4.63184 7.67773C4.82237 8.29902 5.14411 9.1382 5.66992 10.0059C6.72929 11.7538 8.63015 13.6281 11.9082 14.0371L12.2715 14.082L14.0781 12.2754C14.1836 12.1713 14.3169 12.1001 14.4619 12.0703C14.6056 12.0408 14.7548 12.0526 14.8916 12.1055V12.1064L16.7764 12.8584V12.8594C16.9151 12.9157 17.0349 13.0118 17.1191 13.1357C17.1822 13.2287 17.2239 13.3342 17.2412 13.4443L17.25 13.5557V17.0098C17.2484 17.1093 17.2273 17.2076 17.1875 17.2988C17.1469 17.3918 17.0874 17.4753 17.0137 17.5449C16.9399 17.6145 16.8529 17.6691 16.7578 17.7041C16.6865 17.7303 16.6117 17.7452 16.5361 17.749H16.459C10.0908 17.35 6.32004 14.4722 4.05762 11.207C1.77224 7.90857 1.00097 4.17197 0.754883 2.08496C0.743205 1.97951 0.753672 1.87248 0.786133 1.77148C0.818636 1.67051 0.872441 1.57783 0.943359 1.49902C1.01437 1.42013 1.10121 1.35732 1.19824 1.31445C1.29519 1.27163 1.39991 1.24939 1.50586 1.25Z" stroke="#09C4AE" stroke-width="1.5"/>
</svg>
