<svg width="18" height="19" viewBox="0 0 18 19" fill="none" xmlns="http://www.w3.org/2000/svg">
<path d="M15.3 2.3H13.5V1.4C13.5 1.16131 13.4052 0.932387 13.2364 0.763604C13.0676 0.594821 12.8387 0.5 12.6 0.5C12.3613 0.5 12.1324 0.594821 11.9636 0.763604C11.7948 0.932387 11.7 1.16131 11.7 1.4V2.3H6.3V1.4C6.3 1.16131 6.20518 0.932387 6.0364 0.763604C5.86761 0.594821 5.63869 0.5 5.4 0.5C5.1613 0.5 4.93239 0.594821 4.7636 0.763604C4.59482 0.932387 4.5 1.16131 4.5 1.4V2.3H2.7C1.98392 2.3 1.29716 2.58446 0.790812 3.09081C0.284464 3.59716 0 4.28392 0 5V15.8C0 16.5161 0.284464 17.2028 0.790812 17.7092C1.29716 18.2155 1.98392 18.5 2.7 18.5H15.3C16.0161 18.5 16.7028 18.2155 17.2092 17.7092C17.7155 17.2028 18 16.5161 18 15.8V5C18 4.28392 17.7155 3.59716 17.2092 3.09081C16.7028 2.58446 16.0161 2.3 15.3 2.3ZM16.2 15.8C16.2 16.0387 16.1052 16.2676 15.9364 16.4364C15.7676 16.6052 15.5387 16.7 15.3 16.7H2.7C2.46131 16.7 2.23239 16.6052 2.0636 16.4364C1.89482 16.2676 1.8 16.0387 1.8 15.8V9.5H16.2V15.8ZM16.2 7.7H1.8V5C1.8 4.7613 1.89482 4.53239 2.0636 4.3636C2.23239 4.19482 2.46131 4.1 2.7 4.1H4.5V5C4.5 5.23869 4.59482 5.46761 4.7636 5.6364C4.93239 5.80518 5.1613 5.9 5.4 5.9C5.63869 5.9 5.86761 5.80518 6.0364 5.6364C6.20518 5.46761 6.3 5.23869 6.3 5V4.1H11.7V5C11.7 5.23869 11.7948 5.46761 11.9636 5.6364C12.1324 5.80518 12.3613 5.9 12.6 5.9C12.8387 5.9 13.0676 5.80518 13.2364 5.6364C13.4052 5.46761 13.5 5.23869 13.5 5V4.1H15.3C15.5387 4.1 15.7676 4.19482 15.9364 4.3636C16.1052 4.53239 16.2 4.7613 16.2 5V7.7Z" fill="#09C4AE"/>
</svg>
