<svg width="80" height="80" viewBox="0 0 80 80" fill="none" xmlns="http://www.w3.org/2000/svg">
<path d="M68.3693 80H13.7501C13.5822 80 13.416 79.967 13.2608 79.9028C13.1057 79.8385 12.9648 79.7444 12.846 79.6256C12.7273 79.5069 12.6331 79.366 12.5689 79.2108C12.5047 79.0557 12.4716 78.8895 12.4717 78.7216V1.27844C12.4716 1.11054 12.5047 0.944278 12.5689 0.789152C12.6331 0.634026 12.7273 0.493076 12.846 0.374354C12.9648 0.255632 13.1057 0.161465 13.2608 0.0972317C13.416 0.0329987 13.5822 -4.10177e-05 13.7501 3.82158e-08H45.1229L69.6479 24.525V78.7216C69.6479 79.0606 69.5132 79.3858 69.2734 79.6256C69.0336 79.8653 68.7084 80 68.3693 80Z" fill="#F9E7C0"/>
<path d="M45.1232 0L69.6482 24.525H50.336C47.457 24.525 45.123 22.1911 45.123 19.312V0H45.1232Z" fill="#EAC083"/>
</svg>
