<svg width="20" height="20" viewBox="0 0 20 20" fill="none" xmlns="http://www.w3.org/2000/svg">
<path d="M10 -0.00927734C4.486 -0.00927734 0 4.47672 0 9.99072V14.1337C0 15.1577 0.897 15.9907 2 15.9907H3C3.26522 15.9907 3.51957 15.8854 3.70711 15.6978C3.89464 15.5103 4 15.2559 4 14.9907V9.84772C4 9.58251 3.89464 9.32815 3.70711 9.14062C3.51957 8.95308 3.26522 8.84772 3 8.84772H2.092C2.648 4.97772 5.978 1.99072 10 1.99072C14.022 1.99072 17.352 4.97772 17.908 8.84772H17C16.7348 8.84772 16.4804 8.95308 16.2929 9.14062C16.1054 9.32815 16 9.58251 16 9.84772V15.9907C16 17.0937 15.103 17.9907 14 17.9907H12V16.9907H8V19.9907H14C16.206 19.9907 18 18.1967 18 15.9907C19.103 15.9907 20 15.1577 20 14.1337V9.99072C20 4.47672 15.514 -0.00927734 10 -0.00927734Z" fill="black"/>
</svg>
