<svg width="21" height="17" viewBox="0 0 21 17" fill="none" xmlns="http://www.w3.org/2000/svg">
<path d="M8.5 10.5H11.98V9.5H8.5V10.5ZM8.5 7.5H15.462V6.5H8.5V7.5ZM8.5 4.5H15.462V3.5H8.5V4.5ZM6.616 14C6.15534 14 5.771 13.846 5.463 13.538C5.155 13.23 5.00067 12.8457 5 12.385V1.615C5 1.155 5.15434 0.770669 5.463 0.462002C5.77167 0.153335 6.156 -0.000664511 6.616 2.15517e-06H17.385C17.845 2.15517e-06 18.2293 0.154002 18.538 0.462002C18.8467 0.770002 19.0007 1.15434 19 1.615V12.385C19 12.845 18.846 13.229 18.538 13.537C18.23 13.845 17.8453 13.9993 17.384 14H6.616ZM6.616 13H17.385C17.5383 13 17.6793 12.936 17.808 12.808C17.9367 12.68 18.0007 12.539 18 12.385V1.615C18 1.46167 17.936 1.32067 17.808 1.192C17.68 1.06334 17.5387 0.999335 17.384 1H6.616C6.462 1 6.32067 1.064 6.192 1.192C6.06334 1.32 5.99934 1.461 6 1.615V12.385C6 12.5383 6.064 12.6793 6.192 12.808C6.32 12.9367 6.461 13.0007 6.615 13M3.615 17C3.155 17 2.77067 16.846 2.462 16.538C2.15334 16.23 1.99934 15.8457 2 15.385V3.615H3V15.385C3 15.5383 3.064 15.6793 3.192 15.808C3.32 15.9367 3.461 16.0007 3.615 16H15.385V17H3.615Z" fill="black"/>
</svg>
