<svg width="20" height="19" viewBox="0 0 20 19" fill="none" xmlns="http://www.w3.org/2000/svg">
<path d="M16.178 6.52612V12.5995C16.178 13.2415 16.178 13.5625 16.059 13.8434C16.0198 13.9358 15.9715 14.0241 15.9147 14.1069C15.7422 14.3585 15.4717 14.5314 14.9309 14.8773L11.4684 17.0913C10.8415 17.4921 10.528 17.6926 10.1825 17.732C10.0692 17.745 9.95474 17.745 9.84142 17.732C9.49585 17.6926 9.1824 17.4921 8.55551 17.0913L5.09302 14.8773C4.55215 14.5314 4.28172 14.3585 4.10918 14.1069C4.0524 14.0241 4.00406 13.9358 3.96489 13.8434C3.84588 13.5625 3.84588 13.2415 3.84588 12.5995V6.52612M19.0239 5.14835L11.1424 1.52038C10.6489 1.29322 10.4022 1.17964 10.1414 1.15708C10.0552 1.14963 9.96864 1.14963 9.88251 1.15708C9.6217 1.17964 9.37495 1.29322 8.88146 1.52038L1 5.14835L8.83387 8.94094C9.34726 9.18948 9.60395 9.31376 9.87669 9.33842C9.96668 9.34655 10.0572 9.34655 10.1472 9.33842C10.4199 9.31375 10.6766 9.18948 11.19 8.94094L19.0239 5.14835ZM19.0239 5.14835V14.4178C19.0239 15.0062 19.0239 15.3004 18.9217 15.563C18.8881 15.6496 18.8464 15.7329 18.7973 15.8118C18.6485 16.0511 18.4132 16.2276 17.9425 16.5806L16.7709 17.4593" stroke="black" stroke-width="1.50199" stroke-linecap="round" stroke-linejoin="round"/>
</svg>
