<svg width="20" height="20" viewBox="0 0 20 20" fill="none" xmlns="http://www.w3.org/2000/svg">
<g clip-path="url(#clip0_159_1651)">
<path d="M15.75 6.6574C15.8056 6.3874 15.8333 6.10963 15.8333 5.82407C15.8327 5.24193 15.7102 4.66638 15.4735 4.13451C15.2369 3.60264 14.8914 3.12626 14.4594 2.73607C14.0274 2.34589 13.5184 2.05056 12.9653 1.86913C12.4121 1.68769 11.8271 1.62418 11.2479 1.68269C10.6687 1.74119 10.1082 1.92041 9.60254 2.2088C9.09686 2.49718 8.65721 2.88833 8.31195 3.35703C7.96669 3.82573 7.72347 4.36157 7.59797 4.93002C7.47248 5.49847 7.46749 6.08691 7.58333 6.6574M13.3333 11.6574C13.3333 11.9889 13.465 12.3069 13.6994 12.5413C13.9339 12.7757 14.2518 12.9074 14.5833 12.9074C14.9149 12.9074 15.2328 12.7757 15.4672 12.5413C15.7016 12.3069 15.8333 11.9889 15.8333 11.6574C15.8333 11.3259 15.7016 11.0079 15.4672 10.7735C15.2328 10.5391 14.9149 10.4074 14.5833 10.4074C14.2518 10.4074 13.9339 10.5391 13.6994 10.7735C13.465 11.0079 13.3333 11.3259 13.3333 11.6574Z" stroke="black" stroke-width="1.5" stroke-linecap="round" stroke-linejoin="round"/>
<path d="M5.83317 6.65157H13.3332C15.6898 6.65157 16.869 6.65157 17.6007 7.3849C18.3332 8.11657 18.3332 9.29573 18.3332 11.6541V13.3216C18.3332 15.6799 18.3332 16.8591 17.6007 17.5916C16.869 18.3241 15.6898 18.3241 13.3332 18.3241H8.33317C5.19067 18.3241 3.619 18.3241 2.64317 17.3474C1.66734 16.3707 1.6665 14.7982 1.6665 11.6541V9.9874C1.6665 6.8424 1.6665 5.27073 2.64317 4.29323C3.429 3.5074 4.59984 3.35407 6.6665 3.32407H8.33317" stroke="black" stroke-width="1.5" stroke-linecap="round" stroke-linejoin="round"/>
</g>
<defs>
<clipPath id="clip0_159_1651">
<rect width="20" height="20" fill="white" transform="translate(0 -0.00927734)"/>
</clipPath>
</defs>
</svg>
