<svg width="24" height="24" viewBox="0 0 24 24" fill="none" xmlns="http://www.w3.org/2000/svg">
<path d="M20.6005 5.26C20.5251 4.65452 20.2318 4.09721 19.7754 3.69231C19.3189 3.2874 18.7306 3.06262 18.1205 3.06H5.88547C5.27684 3.06231 4.68978 3.28568 4.23357 3.68855C3.77735 4.09142 3.48306 4.64633 3.40547 5.25L3.10547 7.72C3.10516 8.20474 3.2085 8.68394 3.40857 9.12547C3.60863 9.567 3.9008 9.96064 4.26547 10.28V18.44C4.26547 19.103 4.52886 19.7389 4.9977 20.2078C5.46654 20.6766 6.10243 20.94 6.76547 20.94H17.2355C17.8985 20.94 18.5344 20.6766 19.0032 20.2078C19.4721 19.7389 19.7355 19.103 19.7355 18.44V10.28C20.1011 9.9611 20.3942 9.56766 20.5951 9.12611C20.796 8.68456 20.9002 8.20512 20.9005 7.72L20.6005 5.26ZM14.0105 19.94H10.0105V15.86C10.0105 15.4622 10.1685 15.0806 10.4498 14.7993C10.7311 14.518 11.1126 14.36 11.5105 14.36H12.5105C12.9083 14.36 13.2898 14.518 13.5711 14.7993C13.8524 15.0806 14.0105 15.4622 14.0105 15.86V19.94ZM18.7405 18.44C18.7405 18.8378 18.5824 19.2194 18.3011 19.5007C18.0198 19.782 17.6383 19.94 17.2405 19.94H15.0105V15.86C15.0105 15.197 14.7471 14.5611 14.2782 14.0922C13.8094 13.6234 13.1735 13.36 12.5105 13.36H11.5105C10.8474 13.36 10.2115 13.6234 9.7427 14.0922C9.27386 14.5611 9.01047 15.197 9.01047 15.86V19.94H6.76547C6.36764 19.94 5.98611 19.782 5.70481 19.5007C5.4235 19.2194 5.26547 18.8378 5.26547 18.44V10.87C5.65875 11.0316 6.0803 11.1132 6.50547 11.11C6.99633 11.1121 7.4817 11.0067 7.92744 10.8011C8.37318 10.5955 8.76846 10.2948 9.08547 9.92C9.10777 9.89762 9.13426 9.87987 9.16343 9.86776C9.19261 9.85564 9.22388 9.84941 9.25547 9.84941C9.28706 9.84941 9.31833 9.85564 9.34751 9.86776C9.37668 9.87987 9.40317 9.89762 9.42547 9.92C9.74248 10.2948 10.1378 10.5955 10.5835 10.8011C11.0292 11.0067 11.5146 11.1121 12.0055 11.11C12.4984 11.1116 12.9858 11.006 13.4339 10.8006C13.882 10.5951 14.2801 10.2946 14.6005 9.92C14.6209 9.89803 14.6457 9.88048 14.6732 9.86844C14.7007 9.8564 14.7304 9.85013 14.7605 9.85C14.792 9.84992 14.8233 9.85606 14.8524 9.86807C14.8816 9.88008 14.9081 9.89773 14.9305 9.92C15.2475 10.2948 15.6428 10.5955 16.0885 10.8011C16.5342 11.0067 17.0196 11.1121 17.5105 11.11C17.9323 11.1118 18.3503 11.0303 18.7405 10.87V18.44ZM17.5105 10.11C17.1652 10.1113 16.8236 10.0378 16.5095 9.89456C16.1953 9.75128 15.9159 9.54161 15.6905 9.28C15.5779 9.14542 15.4372 9.03717 15.2782 8.96288C15.1192 8.88859 14.9459 8.85005 14.7705 8.85H14.7605C14.5858 8.84883 14.413 8.8858 14.2541 8.95834C14.0952 9.03089 13.954 9.13725 13.8405 9.27C13.6085 9.52298 13.3265 9.72497 13.0123 9.86315C12.6982 10.0013 12.3587 10.0727 12.0155 10.0727C11.6723 10.0727 11.3328 10.0013 11.0186 9.86315C10.7044 9.72497 10.4224 9.52298 10.1905 9.27C10.0741 9.13805 9.931 9.03238 9.77065 8.96C9.61031 8.88762 9.4364 8.85018 9.26047 8.85018C9.08454 8.85018 8.91063 8.88762 8.75029 8.96C8.58994 9.03238 8.44683 9.13805 8.33047 9.27C8.01485 9.63829 7.59526 9.90255 7.12676 10.0281C6.65826 10.1536 6.16275 10.1346 5.70527 9.97341C5.2478 9.81227 4.84973 9.51657 4.56334 9.12512C4.27694 8.73368 4.11559 8.26479 4.10047 7.78L4.40047 5.38C4.44855 5.01756 4.62566 4.6846 4.89933 4.44216C5.173 4.19972 5.52488 4.06404 5.89047 4.06H18.1205C18.4873 4.05979 18.8414 4.19399 19.116 4.43722C19.3905 4.68045 19.5665 5.01585 19.6105 5.38L19.9005 7.74C19.8952 8.37126 19.6404 8.97479 19.1916 9.41883C18.7429 9.86287 18.1368 10.1113 17.5055 10.11H17.5105Z" fill="black"/>
</svg>
