<svg width="24" height="24" viewBox="0 0 24 24" fill="none" xmlns="http://www.w3.org/2000/svg">
<path d="M10.2438 3.75701C9.68725 3.19899 9.02587 2.7565 8.2977 2.45497C7.56953 2.15344 6.78894 1.99882 6.00081 2.00001C5.21268 1.99882 4.43209 2.15344 3.70393 2.45497C2.97576 2.7565 2.31438 3.19899 1.75781 3.75701M3.87981 5.87901C4.44229 5.31636 5.20523 5.00018 6.00081 5.00001C6.7964 5.00018 7.55933 5.31636 8.12181 5.87901M16.0008 20H12.0008M12.0008 20H4.00081L2.00081 14H10.0008L12.0008 20ZM18.0008 20H22.0008V16.347C20.1259 15.4573 18.0761 14.9971 16.0008 15C14.9708 15 13.9668 15.111 13.0008 15.322M19.5008 8.50001C19.5008 9.42826 19.1321 10.3185 18.4757 10.9749C17.8193 11.6313 16.9291 12 16.0008 12C15.0726 12 14.1823 11.6313 13.5259 10.9749C12.8696 10.3185 12.5008 9.42826 12.5008 8.50001C12.5008 7.57175 12.8696 6.68151 13.5259 6.02513C14.1823 5.36876 15.0726 5.00001 16.0008 5.00001C16.9291 5.00001 17.8193 5.36876 18.4757 6.02513C19.1321 6.68151 19.5008 7.57175 19.5008 8.50001Z" stroke="black" stroke-width="1.5"/>
</svg>
