<svg width="20" height="20" viewBox="0 0 20 20" fill="none" xmlns="http://www.w3.org/2000/svg">
<g clip-path="url(#clip0_159_1660)">
<path fill-rule="evenodd" clip-rule="evenodd" d="M12.3957 15.6615C12.3957 15.8259 12.3304 15.9835 12.2142 16.0997C12.0979 16.216 11.9403 16.2813 11.7759 16.2813H1.85936C1.69498 16.2813 1.53733 16.216 1.4211 16.0997C1.30487 15.9835 1.23957 15.8259 1.23957 15.6615V4.50535C1.23957 4.34097 1.30487 4.18333 1.4211 4.0671C1.53733 3.95087 1.69498 3.88557 1.85936 3.88557H11.7759C11.9403 3.88557 12.0979 3.95087 12.2142 4.0671C12.3304 4.18333 12.3957 4.34097 12.3957 4.50535V6.98449C12.3957 7.14887 12.461 7.30652 12.5772 7.42275C12.6935 7.53898 12.8511 7.60428 13.0155 7.60428C13.1799 7.60428 13.3375 7.53898 13.4537 7.42275C13.57 7.30652 13.6353 7.14887 13.6353 6.98449V4.50535C13.6353 4.01222 13.4394 3.53929 13.0907 3.19059C12.742 2.84189 12.2691 2.646 11.7759 2.646H1.85936C1.36622 2.646 0.89329 2.84189 0.544593 3.19059C0.195896 3.53929 0 4.01222 0 4.50535L0 15.6615C0 16.1546 0.195896 16.6276 0.544593 16.9763C0.89329 17.3249 1.36622 17.5208 1.85936 17.5208H11.7759C12.2691 17.5208 12.742 17.3249 13.0907 16.9763C13.4394 16.6276 13.6353 16.1546 13.6353 15.6615V13.1823C13.6353 13.018 13.57 12.8603 13.4537 12.7441C13.3375 12.6279 13.1799 12.5626 13.0155 12.5626C12.8511 12.5626 12.6935 12.6279 12.5772 12.7441C12.461 12.8603 12.3957 13.018 12.3957 13.1823V15.6615Z" fill="#061826"/>
<path fill-rule="evenodd" clip-rule="evenodd" d="M19.6521 10.5222C19.7098 10.4647 19.7556 10.3963 19.7868 10.321C19.8181 10.2457 19.8341 10.1649 19.8341 10.0834C19.8341 10.0019 19.8181 9.92118 19.7868 9.84588C19.7556 9.77058 19.7098 9.70219 19.6521 9.64461L15.9333 5.9259C15.817 5.80952 15.6591 5.74414 15.4945 5.74414C15.3299 5.74414 15.1721 5.80952 15.0557 5.9259C14.9393 6.04228 14.874 6.20012 14.874 6.36471C14.874 6.52929 14.9393 6.68714 15.0557 6.80352L17.7171 9.46364H6.81754C6.65316 9.46364 6.49552 9.52894 6.37928 9.64517C6.26305 9.7614 6.19775 9.91904 6.19775 10.0834C6.19775 10.2478 6.26305 10.4054 6.37928 10.5217C6.49552 10.6379 6.65316 10.7032 6.81754 10.7032H17.7171L15.0557 13.3633C14.9393 13.4797 14.874 13.6376 14.874 13.8021C14.874 13.9667 14.9393 14.1246 15.0557 14.2409C15.1721 14.3573 15.3299 14.4227 15.4945 14.4227C15.6591 14.4227 15.817 14.3573 15.9333 14.2409L19.6521 10.5222Z" fill="#061826"/>
</g>
<defs>
<clipPath id="clip0_159_1660">
<rect width="19.8331" height="19.8331" fill="white" transform="translate(0 0.16687)"/>
</clipPath>
</defs>
</svg>
