<svg width="32" height="32" viewBox="0 0 32 32" fill="none" xmlns="http://www.w3.org/2000/svg">
<path d="M29.999 17V25C29.999 25.5625 29.8063 26.0365 29.4209 26.4219C29.0355 26.8073 28.5615 27 27.999 27H3.99902C3.43652 27 2.96257 26.8073 2.57715 26.4219C2.19173 26.0365 1.99902 25.5625 1.99902 25V17C1.99902 16.4375 2.19173 15.9635 2.57715 15.5781C2.96257 15.1927 3.43652 15 3.99902 15H9.99902C10.2699 15 10.5042 15.099 10.7021 15.2969C10.9001 15.4948 10.999 15.7292 10.999 16C10.999 16.2708 10.9001 16.5052 10.7021 16.7031C10.5042 16.901 10.2699 17 9.99902 17H3.99902V25H27.999V17H21.999C21.7282 17 21.4938 16.901 21.2959 16.7031C21.098 16.5052 20.999 16.2708 20.999 16C20.999 15.7292 21.098 15.4948 21.2959 15.2969C21.4938 15.099 21.7282 15 21.999 15H27.999C28.5615 15 29.0355 15.1927 29.4209 15.5781C29.8063 15.9635 29.999 16.4375 29.999 17ZM10.7178 9.71875L14.999 5.40625V16C14.999 16.2708 15.098 16.5052 15.2959 16.7031C15.4938 16.901 15.7282 17 15.999 17C16.2699 17 16.5042 16.901 16.7021 16.7031C16.9001 16.5052 16.999 16.2708 16.999 16V5.40625L21.2803 9.71875C21.3844 9.80208 21.4938 9.86979 21.6084 9.92188C21.723 9.97396 21.8532 10 21.999 10C22.2699 10 22.5042 9.90104 22.7021 9.70312C22.9001 9.50521 22.999 9.27083 22.999 9C22.999 8.85417 22.973 8.72396 22.9209 8.60938C22.8688 8.49479 22.8011 8.38542 22.7178 8.28125L16.7178 2.28125C16.6136 2.19792 16.5042 2.13021 16.3896 2.07812C16.2751 2.02604 16.1449 2 15.999 2C15.8532 2 15.723 2.02604 15.6084 2.07812C15.4938 2.13021 15.3844 2.19792 15.2803 2.28125L9.28027 8.28125C9.19694 8.38542 9.12923 8.49479 9.07715 8.60938C9.02506 8.72396 8.99902 8.85417 8.99902 9C8.99902 9.27083 9.09798 9.50521 9.2959 9.70312C9.49381 9.90104 9.72819 10 9.99902 10C10.1449 10 10.2751 9.97396 10.3896 9.92188C10.5042 9.86979 10.6136 9.80208 10.7178 9.71875ZM24.999 21C24.999 20.5833 24.8532 20.2292 24.5615 19.9375C24.2699 19.6458 23.9157 19.5 23.499 19.5C23.0824 19.5 22.7282 19.6458 22.4365 19.9375C22.1449 20.2292 21.999 20.5833 21.999 21C21.999 21.4167 22.1449 21.7708 22.4365 22.0625C22.7282 22.3542 23.0824 22.5 23.499 22.5C23.9157 22.5 24.2699 22.3542 24.5615 22.0625C24.8532 21.7708 24.999 21.4167 24.999 21Z" fill="#3E80F9"/>
</svg>
