<svg width="30" height="30" viewBox="0 0 30 30" fill="none" xmlns="http://www.w3.org/2000/svg">
<path fill-rule="evenodd" clip-rule="evenodd" d="M26.2588 10.3375C27.7425 11.4063 28.75 13.0625 28.75 15C28.75 16.9375 27.7425 18.595 26.2588 19.6625C26.5588 21.465 26.0913 23.36 24.725 24.725C23.3563 26.0938 21.4625 26.5487 19.6675 26.2562C18.6038 27.745 16.9325 28.75 15 28.75C13.0625 28.75 11.4025 27.7412 10.3363 26.255C8.53875 26.5487 6.64375 26.095 5.27375 24.725C3.905 23.3563 3.45 21.4613 3.7525 19.6625C2.27 18.5962 1.25 16.9388 1.25 15C1.25 13.0612 2.27 11.4025 3.7525 10.3375C3.45 8.53875 3.905 6.64375 5.275 5.275C6.64125 3.9075 8.5375 3.44125 10.3463 3.74125C11.4063 2.255 13.0662 1.25 15 1.25C16.9312 1.25 18.6 2.25375 19.665 3.74125C21.4675 3.44125 23.36 3.91 24.725 5.275C26.09 6.64 26.56 8.535 26.2588 10.3375ZM20.7262 10.2325C20.8599 10.3279 20.9734 10.4486 21.0604 10.5879C21.1473 10.7271 21.206 10.8821 21.2331 11.044C21.2601 11.206 21.255 11.3716 21.218 11.5316C21.181 11.6915 21.1129 11.8426 21.0175 11.9763L14.7675 20.7262C14.662 20.874 14.5256 20.997 14.3677 21.0867C14.2098 21.1764 14.0343 21.2307 13.8534 21.2456C13.6724 21.2606 13.4904 21.236 13.3199 21.1735C13.1494 21.111 12.9946 21.0121 12.8663 20.8838L9.11625 17.1337C8.88855 16.898 8.76256 16.5822 8.76541 16.2545C8.76826 15.9268 8.89972 15.6132 9.13148 15.3815C9.36324 15.1497 9.67675 15.0183 10.0045 15.0154C10.3322 15.0126 10.648 15.1386 10.8837 15.3663L13.59 18.0725L18.9825 10.5225C19.1753 10.2528 19.4673 10.0708 19.7943 10.0164C20.1213 9.96199 20.4566 10.0397 20.7262 10.2325Z" fill="#09C4AE"/>
</svg>
